<?xml version="1.0" encoding="UTF-8"?>
<!-- Uploaded to: ICON Repo, www.svgrepo.com, Generator: ICON Repo Mixer Tools -->
<svg width="800px" height="800px" version="1.1" viewBox="144 144 512 512" xmlns="http://www.w3.org/2000/svg">
 <defs>
  <clipPath id="a">
   <path d="m148.09 254h503.81v292h-503.81z"/>
  </clipPath>
 </defs>
 <g clip-path="url(#a)">
  <path d="m640.72 266.38c-6.8281-7.4023-16.438-11.609-26.508-11.609-10.066 0-19.676 4.207-26.504 11.609l-187.17 187.53-188.25-187.53c-9.4688-9.4688-23.27-13.168-36.207-9.7031-12.938 3.4688-23.039 13.57-26.508 26.508-3.4648 12.938 0.23438 26.738 9.7031 36.207l214.22 214.22c6.8281 7.4023 16.438 11.609 26.508 11.609 10.066 0 19.68-4.207 26.504-11.609l214.22-214.22c7.4023-6.8242 11.609-16.438 11.609-26.504 0-10.07-4.207-19.68-11.609-26.508z"/>
 </g>
</svg>